<svg width="1024" height="1024" viewBox="0 0 1024 1024" fill="none" xmlns="http://www.w3.org/2000/svg">
<path d="M521.995 428.657C523.614 472.818 540.215 510.413 571.937 541.951H451.522C483.059 510.506 500.446 473.05 501.787 428.102C499.522 431.062 497.672 433.697 495.591 436.148C492.909 439.339 490.273 442.715 487.175 445.489C483.799 448.541 480.054 451.27 476.215 453.767C472.979 455.848 469.372 457.281 465.95 459.084C460.724 461.859 455.083 463.061 449.349 464.032C436.262 466.298 423.407 465.235 411.06 460.379C396.91 454.876 385.303 445.905 376.286 433.651C365.65 419.224 360.425 402.9 360.055 385.097C359.824 374.831 361.766 364.889 365.003 355.178C367.546 347.641 371.292 340.797 375.685 334.184C384.378 321.051 395.661 310.323 407.083 299.641C418.32 289.144 429.511 278.555 440.655 267.919C449.811 259.133 459.198 250.486 467.892 241.237C478.435 230.046 488.562 218.44 498.504 206.694C503.082 201.284 506.735 195.087 510.805 189.215C511.082 188.845 511.36 188.475 511.683 188.012C514.735 192.266 517.51 196.613 520.701 200.59C528.238 209.977 535.683 219.549 543.775 228.474C553.625 239.295 563.891 249.746 574.434 259.873C591.544 276.381 609.208 292.335 626.318 308.936C633.578 315.965 640.699 323.456 646.526 331.687C658.179 348.103 664.607 366.554 663.913 386.947C663.589 396.241 661.832 405.305 658.086 413.86C655.728 419.177 653.185 424.449 650.225 429.443C645.878 436.703 640.237 442.946 633.486 448.033C628.584 451.732 623.405 455.293 617.948 458.067C608.422 462.83 598.11 464.911 587.428 465.05C578.55 465.142 569.902 463.894 561.625 460.888C555.567 458.715 549.694 455.94 544.7 451.732C539.752 447.57 534.758 443.362 530.18 438.83C527.128 435.778 524.77 432.079 522.134 428.657H521.995Z" fill="black"></path>
<g clip-path="url(#clip0_95_55)">
<path d="M604.49 688.7C595.29 703.7 580.49 712.2 563.19 712.2L519.79 712C526.09 707.9 529.49 703.3 529.49 696V611C529.49 605.6 526.89 602.1 523.09 598L567.19 598.3C579.69 598.3 590.19 604 598.19 613.1C606.19 622.2 612.29 638.8 612.59 654C612.89 669.2 611.19 677.9 604.59 688.6L604.49 688.7ZM583.49 624.8C575.89 610.9 563.99 610.4 550.29 611.5V699C565.89 700.5 577.99 697.6 584.79 682.7C591.59 667.9 591.49 639.6 583.39 624.8H583.49Z" fill="black"></path>
<path d="M683.19 659.9H672.19C672.19 660 672.29 698.1 672.29 698.1L695.69 698.6C714.29 699 712.99 680.3 726.29 679.4C723.49 690.8 721.69 700.6 721.59 712H641.79C645.69 708 650.79 704.7 650.79 698.8V610C650.79 604.5 647.09 600.7 642.99 598.1H717.19L718.69 625.2C710.29 627.6 708.39 611.9 694.09 612H672.09V647C686.79 647 686.99 648.5 699.99 642.2L699.69 665.5C693.49 661.7 689.09 659.9 683.09 659.9H683.19Z" fill="black"></path>
<path d="M328.99 700.7C328.99 705.4 333.09 708.2 335.99 712H298.39C303.89 707.1 307.49 703 307.49 696V613.1C307.59 606.8 304.49 602.6 299.99 598.2H345.09C364.49 598.4 378.29 613.9 377.19 633.1C376.09 652.3 369.19 655.8 357.09 660.2C344.99 664.6 339.09 662.9 328.79 659.6L328.99 700.7ZM354.09 641.6C356.69 633.9 356.09 626.2 352.69 619.3C347.39 608.5 338.79 609.8 328.79 610.3V652.6C339.29 653.1 350.19 653.3 354.19 641.6H354.09Z" fill="black"></path>
<path d="M806.49 708.7C788.89 717 773.79 709.6 754.99 711.4C754.49 700.8 752.89 690.4 750.79 680.1C751.49 679.2 755.09 679.3 755.89 680.3L763.89 689.4C771.29 697.9 783.89 702.3 794.49 697C801.79 693.4 802.49 683.1 798.29 676.6C785.19 656.7 749.39 642.2 758.69 614.4C764.59 596.9 784.99 594 800.89 597.2L819.39 601L822.19 625.8C819.79 627.4 816.19 625.9 814.69 623.1C808.79 612.1 794.29 605.9 782.89 612.8C776.89 616.5 778.39 626.8 782.09 631.7C789.99 642.2 804.59 652.1 816.49 665.2C822.59 671.9 824.39 680.8 822.39 690.2C820.39 699.6 814.89 704.5 806.39 708.5L806.49 708.7Z" fill="black"></path>
<path d="M257.49 699.4C240.69 720.4 216.29 709.7 194.29 711.6C194.09 701.3 192.59 690.2 190.69 680.4C190.59 679.3 194.59 678.9 195.39 679.9L202.69 688.6C209.39 696.6 218.79 700.9 229.19 699C239.59 697.1 241.99 690.3 239.99 682.2C237.99 674.1 236.39 673.8 233.39 671L211.69 650.5C199.79 639.1 192.69 625.8 200.69 610.6C208.69 595.4 229.09 594.7 244.19 598L259.59 601.4L262.39 624.9C262.59 626.2 259.79 627.2 258.89 626.8C257.99 626.4 255.99 624.9 255.29 623.7C249.29 612.2 234.79 606.3 223.29 613.3C211.79 620.3 218.29 625.8 221.39 630.7C227.59 640.6 244.19 652.3 255.09 664.2C264.09 674 265.89 689 257.49 699.5V699.4Z" fill="black"></path>
<path d="M443.89 671.1H418.79C415.49 680 412.39 689.2 409.59 698.4C406.79 707.6 410.89 707.7 414.99 712H382.89C389.29 706.6 394.79 701.5 397.79 693.7L417.49 643.3C423.39 628.3 431.09 602.3 443.99 594.2L456.59 626.7L481.19 692.2C484.19 700.2 488.29 705.7 495.29 712.2H456.89C459.89 707.9 462.09 703.9 460.29 699L434.69 629.8L422.29 664.5L441.49 664.9C442.59 666.3 443.39 668.9 443.89 671.4V671.1Z" fill="black"></path>
<path d="M386.59 797C385.19 798.4 379.29 798.9 377.79 797.4L361.49 777.7L361.19 798.1H352.19V763.5L361.39 763.7L377.49 783L378.19 763L386.39 763.2L386.79 796.9L386.59 797Z" fill="black"></path>
<path d="M688.99 783.8L674.19 784V789.9C674.09 789.9 693.69 789.9 693.69 789.9V798C693.59 798 665.09 798 665.09 798V763.4H693.89V771.6L675.19 771.8C674.09 771.8 673.89 776.1 674.69 776.7L688.89 777L689.09 783.9L688.99 783.8Z" fill="black"></path>
<path d="M592.99 763.4H601.39V784.1C601.39 792.4 595.09 798.1 587.19 799C577.89 800 569.59 793.7 569.49 784V763.4C569.39 763.4 577.89 763.4 577.89 763.4L578.69 785.9C578.79 789 583.39 790.6 585.79 790.5C588.19 790.4 592.79 788.3 592.79 784.9L593.09 763.4H592.99Z" fill="black"></path>
<path d="M427.09 796.1C420.09 800.2 409.89 799.4 404.59 792.6C402.99 790.6 407.89 786.2 409.49 787.4C413.89 790.6 418.49 793.6 423.79 788.7C420.89 782.4 406.79 785.1 405.29 775.5C403.79 765.9 406.89 765.5 412.09 763.9C417.29 762.3 425.89 762.7 431.09 767.6C430.59 769.7 427.69 772.7 425.69 773.2C421.99 771.2 417.19 768.5 413.59 771.9C415.49 779.3 428.39 773.9 431.69 784.1C434.99 794.3 431.59 793.6 427.19 796.2L427.09 796.1Z" fill="black"></path>
<path d="M466.19 798.1H457.59L457.49 772L447.09 771.8V763.5L476.79 763.4L476.89 771.8L466.19 772.1V798.1Z" fill="black"></path>
<path d="M541.29 796.9C539.79 798.7 534.79 798.5 532.89 797.3V772.2C532.79 772.2 522.09 771.6 522.09 771.6L522.29 763.4H552.19L552.39 771.8L541.29 772.1V796.8V796.9Z" fill="black"></path>
<path d="M636.29 796.9C635.19 798.9 629.49 798.8 627.99 797.2V772.3L617.39 771.8L617.59 763.4H646.99L647.19 771.9L636.39 772.5L636.19 796.9H636.29Z" fill="black"></path>
<path d="M332.99 797.8L324.19 798.1V763.3H332.99V797.8Z" fill="black"></path>
<path d="M504.29 798L495.19 798.1L495.29 763.4H504.19L504.29 798Z" fill="black"></path>
</g>
<defs>
<clipPath id="clip0_95_55">
<rect width="632.6" height="205" fill="white" transform="translate(190.69 594)"></rect>
</clipPath>
</defs>
</svg>